<svg xmlns="http://www.w3.org/2000/svg" width="265" height="53" viewBox="0 0 265 53" class="editor-view__logo-preview" data-v-8d8ae3dd="" data-v-b9d2a614=""><svg id="mark" viewBox="0 0 512 512" width="53" height="53" x="0" y="0" data-v-8d8ae3dd="" style="fill: rgb(0, 0, 0);"><rect x="0" y="0" width="100%" height="100%" fill="none" data-v-8d8ae3dd=""></rect><g data-v-8d8ae3dd="">
<path xmlns="http://www.w3.org/2000/svg" d="M0 0 C2.46381789 -0.00435359 4.92763442 -0.00953889 7.39144897 -0.01548767 C13.36099225 -0.02743962 19.3304694 -0.03003729 25.30001857 -0.02768741 C30.15936612 -0.02589566 35.0187001 -0.02767213 39.87804604 -0.03191185 C40.57282984 -0.03250704 41.26761364 -0.03310223 41.98345149 -0.03371545 C43.39548212 -0.03492736 44.80751275 -0.0361415 46.21954338 -0.03735783 C59.42869454 -0.04820625 72.6378201 -0.04608398 85.84697268 -0.03997298 C97.89011781 -0.03480886 109.93318193 -0.04605076 121.97631105 -0.0650712 C134.38551981 -0.08451729 146.79469039 -0.09269362 159.20391446 -0.08894795 C166.15331109 -0.0870458 173.10263886 -0.08942612 180.05202293 -0.10366249 C186.59307192 -0.1169283 193.13398685 -0.11422501 199.67504501 -0.1012516 C202.06172428 -0.09890264 204.44841516 -0.10155942 206.8350811 -0.10987473 C224.34835825 -0.16644355 241.56046278 0.54658374 258.23754883 6.4621582 C259.10968018 6.76404053 259.98181152 7.06592285 260.88037109 7.37695312 C276.39746643 12.9369962 292.04773526 21.72331602 303.25317383 33.99731445 C304.48172876 35.41025173 304.48172876 35.41025173 306.48754883 36.2746582 C306.48754883 36.9346582 306.48754883 37.5946582 306.48754883 38.2746582 C307.14754883 38.2746582 307.80754883 38.2746582 308.48754883 38.2746582 C332.85895618 63.5389835 343.67778972 97.59357737 343.6212616 132.1436615 C343.62352715 133.18025471 343.62579271 134.21684792 343.62812692 135.28485304 C343.63441263 138.72799958 343.63364106 142.1711062 343.6328125 145.61425781 C343.63580746 148.09571381 343.63921077 150.57716934 343.64299011 153.05862427 C343.65088804 159.08304096 343.6540434 165.1074422 343.65460249 171.13186263 C343.65507951 176.03655955 343.65714353 180.94125327 343.66030312 185.84594917 C343.66910168 199.79071765 343.67372398 213.73547847 343.67297264 227.68024974 C343.67291271 228.80556469 343.67291271 228.80556469 343.67285156 229.95361328 C343.67281068 230.70475332 343.6727698 231.45589336 343.67272768 232.22979522 C343.67232189 244.38236748 343.68187671 256.53490865 343.69598993 268.68747192 C343.71040948 281.20393629 343.717257 293.72038556 343.71639615 306.23685843 C343.716066 313.24835719 343.71873217 320.2598234 343.7295742 327.27131462 C343.7397206 333.87468059 343.7392873 340.47799011 343.73205757 347.08136368 C343.73102015 349.49019662 343.73332385 351.89903397 343.73941803 354.30785942 C343.78101906 371.90671442 343.66066069 389.79528846 339.30004883 406.9621582 C339.08501709 407.82607178 338.86998535 408.68998535 338.6484375 409.58007812 C333.25815323 430.26089718 322.88369366 447.60639454 308.48754883 463.2746582 C307.69864258 464.14606445 306.90973633 465.0174707 306.09692383 465.9152832 C283.27586436 489.94540542 249.85828692 504.54460713 217.13850403 507.39129639 C216.18933163 507.47498718 215.24015922 507.55867797 214.26222402 507.64490485 C204.29953879 508.46214143 194.37500046 508.55677579 184.38476562 508.53344727 C182.38269932 508.53616771 180.38063402 508.53973446 178.37857056 508.54406738 C173.01263775 508.55307042 167.64678313 508.54969737 162.28084922 508.54330921 C156.61649628 508.53818362 150.95214927 508.54295882 145.28779602 508.54608154 C135.77892884 508.54970322 126.27009289 508.54497057 116.76123047 508.53540039 C105.83447914 508.52452879 94.90780256 508.52803936 83.98105305 508.5390532 C74.53230747 508.54818899 65.08358412 508.54938059 55.63483554 508.54417586 C50.02118478 508.54108926 44.4075689 508.54055382 38.79392052 508.54724884 C-6.86366001 508.59403349 -51.12441283 508.46243239 -88.51245117 478.2746582 C-89.05466309 477.84314453 -89.596875 477.41163086 -90.15551758 476.96704102 C-117.34893497 455.17895024 -134.04742092 423.74877749 -138.01173592 389.12563801 C-138.51923502 384.46579211 -138.83771747 379.81275278 -139.06686401 375.13163757 C-139.13005508 373.84079507 -139.13005508 373.84079507 -139.19452274 372.52387494 C-139.65784063 362.2051453 -139.65273714 351.8900681 -139.6418457 341.56298828 C-139.64320479 339.36417614 -139.64498756 337.16536423 -139.64715576 334.96655273 C-139.65167108 329.05508423 -139.64996472 323.14363339 -139.64677668 317.23216462 C-139.6442207 311.00191852 -139.64659969 304.77167379 -139.64816284 298.54142761 C-139.65009154 287.41136917 -139.64700869 276.28131844 -139.6419035 265.15126123 C-139.63685156 253.78684979 -139.63944514 242.42245445 -139.64464867 231.0580433 C-139.64921322 220.66667564 -139.6498139 210.27531303 -139.64721 199.88394469 C-139.64566459 193.70465326 -139.645405 187.52536976 -139.64874649 181.34607887 C-139.65167388 175.5272481 -139.64956192 169.70843879 -139.64385223 163.88961029 C-139.64255005 161.77635674 -139.64287435 159.66310132 -139.6451149 157.54984856 C-139.65590533 146.32136729 -139.50152606 135.11399353 -139.07467651 123.89286804 C-139.03698815 122.86807777 -138.9992998 121.8432875 -138.96046937 120.78744298 C-137.52244812 86.42549166 -123.75744506 56.55418912 -99.51245117 32.2746582 C-71.3537308 6.60585683 -36.90061878 -0.04322859 0 0 Z M-83.54370117 59.8918457 C-98.28430077 77.73265077 -104.67169378 96.77753427 -104.65289307 119.82810974 C-104.65586419 120.97451229 -104.65883531 122.12091483 -104.66189647 123.30205685 C-104.67055196 127.13464692 -104.67208906 130.96720563 -104.67358398 134.79980469 C-104.6776793 137.55169355 -104.68321926 140.30357915 -104.68862915 143.0554657 C-104.70217719 150.5269679 -104.70823196 157.99846471 -104.71263981 165.46997714 C-104.71540878 170.14233497 -104.71964737 174.81469075 -104.72414398 179.4870472 C-104.73633312 192.44323185 -104.74663243 205.39941487 -104.75001907 218.35560513 C-104.75023864 219.18391397 -104.75045821 220.01222282 -104.75068443 220.86563194 C-104.7509027 221.69583967 -104.75112098 222.52604739 -104.75134587 223.38141292 C-104.75178933 225.06352007 -104.75223589 226.74562723 -104.75268555 228.42773438 C-104.75290698 229.26210445 -104.75312841 230.09647453 -104.75335655 230.95612855 C-104.75729992 244.45920063 -104.77474144 257.96221859 -104.79804507 271.4652698 C-104.82182021 285.35458971 -104.83422376 299.24388254 -104.83538699 313.13322312 C-104.83630041 320.92101845 -104.84196807 328.70874329 -104.8602066 336.49651909 C-104.87569118 343.13141243 -104.8806793 349.76621349 -104.8724685 356.40112149 C-104.86859097 359.77951387 -104.87101669 363.15757157 -104.88352585 366.53596497 C-104.9874746 396.37620725 -101.43564506 421.17712529 -80.20385742 443.6730957 C-70.87995456 452.68575072 -57.87201884 462.56398433 -44.26245117 462.3371582 C-43.02495117 462.3165332 -41.78745117 462.2959082 -40.51245117 462.2746582 C-40.51245117 458.6446582 -40.51245117 455.0146582 -40.51245117 451.2746582 C-41.62362305 450.7899707 -42.73479492 450.3052832 -43.87963867 449.8059082 C-52.67559349 445.87780018 -60.38981715 441.90806079 -67.51245117 435.2746582 C-68.39932617 434.4496582 -69.28620117 433.6246582 -70.19995117 432.7746582 C-70.96307617 431.9496582 -71.72620117 431.1246582 -72.51245117 430.2746582 C-73.04225586 429.72680664 -73.57206055 429.17895508 -74.11791992 428.61450195 C-88.76897959 412.86380425 -93.84319662 392.47858595 -93.77987671 371.46124268 C-93.78440782 370.33521818 -93.78893893 369.20919368 -93.79360735 368.04904723 C-93.80617754 364.30942946 -93.80463577 360.56995871 -93.80297852 356.83032227 C-93.80896834 354.13532989 -93.81571926 351.44034865 -93.82333374 348.74536133 C-93.83987323 342.20438928 -93.84544006 335.66345329 -93.8465585 329.12246206 C-93.84751223 323.80060745 -93.85163865 318.47876463 -93.85795975 313.15691376 C-93.87555204 298.03569832 -93.88480164 282.91451115 -93.8832988 267.7932854 C-93.88321889 266.97986303 -93.88313897 266.16644067 -93.88305664 265.32836914 C-93.88297488 264.51394245 -93.88289312 263.69951576 -93.88280888 262.86040947 C-93.8819963 249.6672853 -93.90113211 236.47427537 -93.92933337 223.28118423 C-93.95812764 209.70248995 -93.97187011 196.12385128 -93.97014582 182.54512572 C-93.96948423 174.93457821 -93.97487485 167.32415052 -93.99650192 159.71363068 C-94.01480003 153.23358715 -94.01899075 146.7537178 -94.00548308 140.2736595 C-93.99899683 136.97432029 -94.00089288 133.67538018 -94.01618958 130.37606049 C-94.13133309 103.80699356 -89.82014589 83.85714434 -71.32495117 63.5871582 C-51.11498084 44.49478992 -26.14439326 41.81543797 0.25292969 41.87060547 C2.73161627 41.86489403 5.21030023 41.85792679 7.6889801 41.84980774 C13.69016067 41.83379687 19.69119037 41.83175794 25.6923775 41.83702064 C30.57556936 41.84108256 35.45873043 41.83959498 40.34192085 41.83427238 C41.04021069 41.83352396 41.73850053 41.83277554 42.45795067 41.83200444 C43.87707397 41.83047277 45.29619725 41.82893442 46.71532054 41.82738947 C59.98496275 41.81370214 73.25454579 41.81907579 86.52418662 41.83057468 C98.63075334 41.84050585 110.7371672 41.82756172 122.84371036 41.80364049 C135.31509519 41.7791865 147.78640902 41.76965687 160.25781733 41.77629322 C167.24345095 41.77977114 174.22896711 41.77764831 181.21458244 41.76004219 C187.78521962 41.74368533 194.3556139 41.74859926 200.92625999 41.76734734 C203.32709958 41.77101546 205.72796101 41.76797711 208.12878036 41.75746155 C231.71858517 41.66208565 251.47352144 45.51237861 270.48754883 60.2746582 C271.60129883 61.40194336 271.60129883 61.40194336 272.73754883 62.55200195 C274.3158305 64.50849729 274.3158305 64.50849729 276.48754883 64.2746582 C276.75180664 64.8624707 277.01606445 65.4502832 277.28833008 66.0559082 C278.5295679 68.35240033 279.87403721 69.89534173 281.67504883 71.7746582 C291.35955061 82.70747414 298.58982723 98.34587655 298.62176991 113.16562939 C298.62622775 114.12938462 298.63068559 115.09313986 298.63527852 116.0860998 C298.63500198 117.66252528 298.63500198 117.66252528 298.63471985 119.27079773 C298.63839654 120.39351367 298.64207322 121.51622962 298.64586133 122.67296726 C298.65689372 126.44344112 298.66074135 130.21388741 298.66455078 133.984375 C298.67081599 136.68493818 298.67745031 139.38549844 298.6844635 142.08605957 C298.70420756 150.19833273 298.71429383 158.31060709 298.72319129 166.42289826 C298.72757963 170.2494553 298.73294521 174.07601096 298.73818016 177.90256691 C298.75519426 190.6355889 298.76968457 203.36861005 298.7769289 216.10164165 C298.77883861 219.40451242 298.78075896 222.70738317 298.78271484 226.01025391 C298.78319858 226.8311051 298.78368232 227.6519563 298.78418072 228.49768177 C298.79246652 241.77072567 298.81777801 255.04367901 298.85029552 268.31668343 C298.88345829 281.96522021 298.90138616 295.61371114 298.90457314 309.26228839 C298.90673029 316.91660698 298.91536094 324.57079374 298.94103432 332.22507286 C298.96286808 338.74950291 298.97073028 345.27376912 298.96106753 351.79823156 C298.95655834 355.12011192 298.96044298 358.44138428 298.97782898 361.7632618 C299.14987692 396.60798782 299.14987692 396.60798782 290.67504883 411.8371582 C290.32885498 412.49079346 289.98266113 413.14442871 289.62597656 413.81787109 C286.76374702 419.08241079 283.52914458 423.83665861 279.48754883 428.2746582 C278.81079102 429.03133789 278.1340332 429.78801758 277.43676758 430.56762695 C265.06398823 443.68760789 248.57732226 451.31407842 230.62995291 452.4565661 C227.72081032 452.52352331 224.81799842 452.53205279 221.90814209 452.51516724 C220.25729972 452.51773051 220.25729972 452.51773051 218.573107 452.52034557 C214.9204959 452.52361475 211.26807243 452.51267938 207.61547852 452.50170898 C204.9831959 452.50114431 202.35092444 452.50137466 199.71864319 452.50259399 C194.0695683 452.50363819 188.42053993 452.49741052 182.77147675 452.48611832 C174.60407913 452.46980279 166.43670381 452.46464915 158.26929167 452.46214233 C145.01537118 452.45777469 131.76147543 452.44449093 118.50756836 452.42553711 C105.63940555 452.40715416 92.77124948 452.3930095 79.90307617 452.38452148 C79.10870103 452.38399604 78.3143259 452.38347059 77.49587879 452.38292922 C73.51037942 452.38031898 69.52488 452.3777916 65.53938055 452.37530541 C32.52208513 452.35460191 -0.49517928 452.31925223 -33.51245117 452.2746582 C-33.51245117 455.9046582 -33.51245117 459.5346582 -33.51245117 463.2746582 C2.35282389 463.34313609 38.21808565 463.39620793 74.0834127 463.42785419 C78.32025701 463.43160619 82.55710119 463.43548917 86.79394531 463.43945312 C87.63740388 463.44024006 88.48086244 463.44102699 89.34988036 463.44183777 C102.99653994 463.454882 116.64316149 463.47853043 130.28979854 463.50611659 C144.29861301 463.53419813 158.30740761 463.55084027 172.31624907 463.55692369 C180.95637206 463.56103443 189.59638757 463.57400517 198.23647746 463.5984076 C204.16602504 463.61429874 210.09551728 463.61905093 216.02508459 463.61516234 C219.44314574 463.61324603 222.86101943 463.61612711 226.27904701 463.63227463 C229.99317125 463.64724862 233.70683945 463.64359342 237.42097473 463.63542175 C238.49007184 463.64416028 239.55916896 463.6528988 240.66066295 463.66190213 C258.96579363 463.55339867 273.20628115 454.92436229 286.22192383 442.70825195 C308.08512314 419.92842782 309.7939004 393.33546896 309.76220703 363.23608398 C309.76546988 360.50138925 309.77168087 357.76670282 309.7776947 355.03201294 C309.7903802 348.40174091 309.79224315 341.7715095 309.78989444 335.14122738 C309.78810434 329.74695744 309.78987567 324.35269973 309.79411888 318.95843124 C309.79501166 317.80255416 309.79501166 317.80255416 309.79592248 316.62332603 C309.79713436 315.0573992 309.79834849 313.49147238 309.79956486 311.92554556 C309.81041653 297.27293097 309.80828907 282.62033946 309.80218001 267.96772359 C309.79701196 254.59368383 309.8082676 241.21971693 309.82727823 227.84569158 C309.84669809 214.07709313 309.85490544 200.30852909 309.85115498 186.53991687 C309.84924935 178.82434811 309.85166802 171.10884135 309.86586952 163.39328384 C309.87783728 156.82547432 309.87912814 150.25776498 309.86707935 143.68995394 C309.8612284 140.34607771 309.86164136 137.00253273 309.87208176 133.65864563 C309.95726181 104.24186789 305.83758291 80.24939208 284.48754883 58.2746582 C283.44147461 57.11836914 283.44147461 57.11836914 282.37426758 55.9387207 C267.32632826 39.81789357 243.85176172 31.20955784 222.05732179 30.15732741 C214.97536374 29.96182207 207.8911603 29.99144052 200.80712891 30 C198.42065268 29.99564686 196.03417786 29.99046171 193.64770508 29.98451233 C187.86352099 29.9725562 182.07939098 29.96996333 176.29519603 29.97231259 C171.58694093 29.97410384 166.87869983 29.97232893 162.1704464 29.96808815 C161.49744127 29.96749296 160.82443615 29.96689777 160.13103693 29.96628455 C158.76329504 29.96507264 157.39555314 29.96385851 156.02781125 29.96264217 C143.23073011 29.95179184 130.43367538 29.9539169 117.63659277 29.96002702 C105.96776599 29.965191 94.29902283 29.95394996 82.63021258 29.9349288 C70.60863431 29.915485 58.58709546 29.907306 46.56550139 29.91105205 C39.83241734 29.91295459 33.09941487 29.91029987 26.36634254 29.89633751 C20.02884778 29.88368622 13.69151925 29.88577192 7.35402679 29.8987484 C5.04110595 29.90109809 2.72817314 29.89843789 0.41526604 29.89012527 C-31.51354433 29.78373589 -60.65695457 35.93834397 -83.54370117 59.8918457 Z M-43.51245117 60.7746582 C-44.18469727 61.11650146 -44.85694336 61.45834473 -45.54956055 61.81054688 C-59.87026697 69.47579679 -70.04557619 82.06844002 -75.60229492 97.23168945 C-77.61131915 103.94855588 -77.65866881 110.389786 -77.65289307 117.34204102 C-77.65586419 118.46026654 -77.65883531 119.57849207 -77.66189647 120.73060322 C-77.67057175 124.47967079 -77.67209075 128.22870639 -77.67358398 131.9777832 C-77.67821305 134.66527964 -77.68321747 137.3527732 -77.68862915 140.04026794 C-77.70219232 147.34433707 -77.70823438 154.64840069 -77.71263981 161.95248032 C-77.7154063 166.5179328 -77.71964446 171.08338317 -77.72414398 175.64883423 C-77.73633526 188.30212776 -77.74663404 200.9554196 -77.75001907 213.60871887 C-77.75023864 214.41807937 -77.75045821 215.22743987 -77.75068443 216.06132644 C-77.7509027 216.87257211 -77.75112098 217.68381778 -77.75134587 218.51964664 C-77.75178933 220.16340701 -77.75223589 221.80716737 -77.75268555 223.45092773 C-77.75290698 224.26628144 -77.75312841 225.08163515 -77.75335655 225.92169654 C-77.75730068 239.11976303 -77.77474359 252.31777418 -77.79804507 265.51581931 C-77.82180381 279.08300794 -77.83422302 292.65016886 -77.83538699 306.21737862 C-77.83630135 313.82793315 -77.84199283 321.43841561 -77.8602066 329.0489502 C-77.87566894 335.53246349 -77.88069221 342.01588244 -77.8724685 348.49941069 C-77.86858321 351.80245257 -77.87104594 355.10526674 -77.88352585 358.40829277 C-78.18698212 381.65629356 -78.18698212 381.65629356 -70.88745117 403.4621582 C-70.54045166 404.12795898 -70.19345215 404.79375977 -69.8359375 405.47973633 C-61.37469316 421.15864699 -47.57969325 432.32034342 -30.60285234 437.90256035 C-17.47467845 441.62504398 -4.58171792 441.84061548 8.97290039 441.77636719 C11.2779371 441.78015917 13.58297151 441.78566641 15.88800049 441.79273987 C22.09438691 441.80659378 28.300493 441.79559724 34.50686359 441.77902865 C41.02921531 441.76508414 47.55155229 441.77164862 54.07391357 441.77516174 C65.01815086 441.77858306 75.96228397 441.76454509 86.90649414 441.74121094 C98.13440026 441.71727512 109.36216083 441.71021844 120.59008789 441.72070312 C134.17516227 441.73336647 147.76013491 441.73079187 161.34520721 441.71504402 C166.51390914 441.70930876 171.68256236 441.7093474 176.85126495 441.71410942 C182.941783 441.71890458 189.03210137 441.70867274 195.12258148 441.68715477 C197.34848864 441.68162221 199.57441512 441.68108885 201.80032349 441.68610764 C224.79570082 441.73142928 245.04612564 438.49088179 262.48754883 422.2746582 C281.55315647 402.97689705 281.94036837 380.9060314 281.87573242 355.42626953 C281.87980313 352.72433932 281.88504046 350.02243373 281.8916626 347.32051086 C281.90492669 340.77524876 281.90215553 334.23009049 281.89342467 327.6848245 C281.8866212 322.36205039 281.88574285 317.03930516 281.88899612 311.71652794 C281.88945582 310.95602526 281.88991552 310.19552258 281.89038915 309.41197437 C281.89134842 307.86657414 281.89232106 306.32117393 281.89330693 304.77577373 C281.9018389 290.32260223 281.89206034 275.86948804 281.87590583 261.41632595 C281.8624965 249.0361483 281.86484005 236.65605504 281.87866211 224.27587891 C281.89474276 209.86615874 281.90102366 195.45648862 281.89182532 181.04676074 C281.89086976 179.50828756 281.88992664 177.96981437 281.88899612 176.43134117 C281.88830188 175.29616956 281.88830188 175.29616956 281.88759362 174.13806519 C281.88501178 168.82503605 281.88935708 163.51203886 281.89643478 158.19901466 C281.90487732 151.71967414 281.90251175 145.24044255 281.88659255 138.7611144 C281.87874789 135.46029324 281.87718781 132.15968919 281.88554001 128.85886383 C281.89378024 125.2706648 281.88340352 121.68297006 281.86849976 118.09480286 C281.87519192 117.06608702 281.88188409 116.03737118 281.88877904 114.97748214 C281.76500328 99.53471707 276.51015148 86.87645244 266.48754883 75.2746582 C265.91520508 74.59532227 265.34286133 73.91598633 264.75317383 73.21606445 C255.09044783 62.62423018 240.55442275 56.16563425 226.48754883 54.2746582 C223.11017059 54.12836478 219.73595967 54.13112379 216.35580444 54.13421631 C214.82948267 54.12975963 214.82948267 54.12975963 213.27232611 54.12521291 C209.8640782 54.11654424 206.45586548 54.1150192 203.04760742 54.11352539 C200.603169 54.1088959 198.1587313 54.10387106 195.71429443 54.09848022 C189.07355859 54.0853663 182.43283647 54.07887611 175.79209089 54.07446957 C171.64140795 54.07170252 167.49072731 54.0674643 163.34004593 54.06296539 C151.83624862 54.05077566 140.33245315 54.04047606 128.82864952 54.0370903 C128.09297618 54.03687074 127.35730284 54.03665117 126.59933636 54.03642495 C125.86195348 54.03620667 125.12457059 54.03598839 124.36484277 54.0357635 C122.8707513 54.03532004 121.37665983 54.03487348 119.88256836 54.03442383 C119.1414554 54.0342024 118.40034244 54.03398097 117.63677152 54.03375283 C105.63689202 54.02980756 93.63707335 54.0123605 81.63721733 53.98906431 C69.30175165 53.96531093 56.96631645 53.95288662 44.63082755 53.95172238 C37.71115086 53.95080781 30.79155342 53.94511073 23.87189865 53.92690277 C17.35971545 53.90982678 10.84764225 53.90827889 4.33544159 53.91704178 C1.95066297 53.91781082 -0.43412381 53.91348704 -2.81888199 53.90358353 C-17.38131009 53.84667448 -30.27456876 54.01883313 -43.51245117 60.7746582 Z M-26.51245117 472.2746582 C-25.91337976 475.75950043 -25.65885792 476.16326176 -22.63745117 478.4621582 C-18.81050069 480.68178948 -16.19285782 481.39965389 -11.85132408 481.40049934 C-10.88803385 481.40310709 -9.92474362 481.40571484 -8.93226278 481.40840161 C-7.34137757 481.40505553 -7.34137757 481.40505553 -5.71835327 481.40164185 C-4.59351866 481.40320184 -3.46868406 481.40476183 -2.30976355 481.40636909 C1.47896958 481.41037432 5.26766302 481.40719128 9.05639648 481.40405273 C11.76454248 481.40485661 14.47268675 481.40715069 17.18083191 481.40936279 C23.78417657 481.41381575 30.38750988 481.4128462 36.99085499 481.40995015 C42.35500225 481.40769465 47.71914632 481.40738424 53.08329391 481.40847397 C53.84582306 481.4086272 54.60835221 481.40878043 55.3939883 481.40893831 C56.94287297 481.40925802 58.49175764 481.40958224 60.04064231 481.4099109 C74.57304882 481.41276421 89.10544902 481.40948081 103.6378545 481.40411054 C116.11998233 481.39964084 128.60210086 481.40042009 141.08422852 481.4050293 C155.56662346 481.4103746 170.04901288 481.41249142 184.53140867 481.40941703 C186.0740842 481.40909847 187.61675974 481.4087841 189.15943527 481.40847397 C190.29809224 481.40824256 190.29809224 481.40824256 191.45975239 481.40800647 C196.82138153 481.40714131 202.18300717 481.40860411 207.54463577 481.41095352 C214.07285486 481.41375115 220.60106192 481.41301397 227.12927963 481.40767278 C230.46302447 481.40503553 233.79673248 481.40456486 237.13047981 481.40732193 C240.73614638 481.4100302 244.34175537 481.40665631 247.94741821 481.40164185 C249.54499558 481.40498793 249.54499558 481.40498793 251.17484725 481.40840161 C252.13292198 481.40579386 253.09099672 481.40318611 254.07810402 481.40049934 C254.91148281 481.40033699 255.7448616 481.40017464 256.60349429 481.40000737 C258.50020232 481.48153998 258.50020232 481.48153998 259.48754883 480.2746582 C259.65421549 476.7746582 259.65421549 476.7746582 259.48754883 473.2746582 C258.49230856 472.05916095 258.49230856 472.05916095 256.53592199 472.15045971 C255.67053936 472.15083943 254.80515673 472.15121915 253.91355038 472.15161037 C252.91879159 472.14961933 251.9240328 472.14762828 250.89912981 472.14557689 C249.79312239 472.14848974 248.68711496 472.15140258 247.54759216 472.15440369 C245.80059189 472.15312205 245.80059189 472.15312205 244.01829869 472.15181452 C240.77109482 472.15044636 237.52393033 472.15359374 234.27673113 472.15859258 C230.78046518 472.16289385 227.2842012 472.16145089 223.78793335 472.16069031 C217.72561134 472.16016487 211.66330007 472.16331377 205.60098076 472.16892815 C196.83578553 472.17704042 188.0705955 472.17965809 179.30539692 472.18091614 C165.08591922 472.18310709 150.86644725 472.18976833 136.64697266 472.19921875 C122.8305667 472.20839176 109.01416229 472.21547313 95.19775391 472.21972656 C93.92120738 472.22012065 93.92120738 472.22012065 92.61887204 472.22052269 C88.34968238 472.22182769 84.0804927 472.22309141 79.81130302 472.2243346 C44.37004754 472.23470855 8.92879871 472.25232803 -26.51245117 472.2746582 Z " fill="inherit" transform="translate(154.512451171875,2.725341796875)"></path>
<path xmlns="http://www.w3.org/2000/svg" d="M0 0 C1.0395256 -0.00453111 2.0790512 -0.00906223 3.15007758 -0.01373065 C6.62668814 -0.02637144 10.10314198 -0.02475446 13.57977295 -0.02310181 C16.07524313 -0.02908726 18.57071147 -0.03589285 21.06617737 -0.04345703 C27.13759759 -0.05928847 33.2089564 -0.06556537 39.28039154 -0.06668179 C44.21816041 -0.06763359 49.15591651 -0.07175047 54.09368134 -0.07808304 C68.10767823 -0.09568859 82.12164454 -0.10492305 96.13565257 -0.10342209 C97.26790671 -0.10330222 97.26790671 -0.10330222 98.42303467 -0.10317993 C99.55667893 -0.10305729 99.55667893 -0.10305729 100.7132251 -0.10293217 C112.95623613 -0.10211959 125.19912405 -0.12125189 137.44209948 -0.14945666 C150.02733107 -0.17822002 162.61250269 -0.19199505 175.19776797 -0.19026911 C182.25770441 -0.18960637 189.31751178 -0.1950475 196.37741852 -0.21662521 C203.01932875 -0.236796 209.66101359 -0.23612809 216.30295372 -0.22159195 C218.7365299 -0.21950341 221.17012315 -0.22420737 223.60367012 -0.23631287 C226.93442144 -0.25180433 230.26423875 -0.24243046 233.5949707 -0.22705078 C234.55034642 -0.23733791 235.50572215 -0.24762503 236.49004865 -0.25822389 C248.07627918 -0.14058261 257.37182779 4.15551281 265.55145264 12.26742554 C272.43712399 20.31241911 277.66136267 29.02717479 277.68567371 39.86749363 C277.69013156 40.79177396 277.6945894 41.7160543 277.69918233 42.66834313 C277.69890579 44.18626305 277.69890579 44.18626305 277.69862366 45.73484802 C277.70230035 46.81264587 277.70597703 47.89044372 277.70976514 49.00090212 C277.72080867 52.62498567 277.72464698 56.24904056 277.72845459 59.87313843 C277.73471877 62.46668591 277.74136553 65.06023248 277.74836731 67.65377808 C277.76811761 75.44607254 277.77819662 83.23836828 277.7870951 91.03068152 C277.7914808 94.70273606 277.79684692 98.37478917 277.80208397 102.04684258 C277.81909566 114.25827389 277.83358863 126.46970432 277.84083271 138.68114567 C277.84274252 141.84914717 277.84466287 145.01714867 277.84661865 148.18515015 C277.84710239 148.97251564 277.84758613 149.75988113 277.84808453 150.57110619 C277.85638034 163.3186891 277.8817099 176.06617804 277.91419933 188.81371994 C277.94730367 201.90961528 277.96528456 215.00546292 277.96847695 228.10140032 C277.97063905 235.45090496 277.97934344 242.80027262 278.00493813 250.1497364 C278.02897088 257.06657386 278.03244963 263.98316143 278.02217674 270.90003204 C278.0216814 273.43520108 278.02800129 275.97038225 278.04173279 278.50551414 C278.05946642 281.97434229 278.05233721 285.44228814 278.03919983 288.91111755 C278.05016908 289.90744912 278.06113832 290.90378068 278.07243997 291.93030411 C277.95542963 304.78284693 272.45992513 315.10705525 263.92645264 324.45492554 C254.57597909 333.44645576 242.90482336 336.57624747 230.3374176 336.53485107 C229.32309888 336.53938219 228.30878016 336.5439133 227.26372451 336.54858172 C223.87236397 336.56121962 220.48116416 336.55960571 217.08978271 336.55795288 C214.65504755 336.56393856 212.22031427 336.57074419 209.7855835 336.57830811 C203.86222768 336.59413839 197.93890941 336.60041641 192.01553676 336.60153286 C187.19743694 336.60248482 182.37935019 336.60660247 177.5612545 336.61293411 C163.88434828 336.6305401 150.20747339 336.63977417 136.53055576 336.63827316 C135.79390437 336.63819325 135.05725297 336.63811334 134.29827881 336.63803101 C133.19194355 336.63790836 133.19194355 336.63790836 132.06325807 336.63778324 C120.11838148 336.63697088 108.17363113 336.65609777 96.22879104 336.68430774 C83.94752773 336.713082 71.66632591 336.72684549 59.38502806 336.72512019 C52.49664487 336.72445778 45.60839399 336.7298843 38.72004128 336.75147629 C32.23818107 336.77166466 25.75652759 336.77096803 19.27465057 336.75644302 C16.90115895 336.75435643 14.52764977 336.75904681 12.15418816 336.77116394 C-4.98737853 336.85297885 -18.05601333 336.20241249 -31.44854736 324.26742554 C-41.33863785 313.73392767 -44.76039894 302.62533269 -44.7159729 288.40837097 C-44.72050401 287.33673366 -44.72503513 286.26509634 -44.72970355 285.16098517 C-44.74233127 281.58159358 -44.7407282 278.00235447 -44.73907471 274.42294312 C-44.745061 271.85175379 -44.75186678 269.28056627 -44.75942993 266.7093811 C-44.7760055 260.45629201 -44.78153794 254.20324063 -44.78265469 247.95013139 C-44.7836069 242.86366236 -44.78772586 237.7772057 -44.79405594 232.69074059 C-44.81165982 218.25008313 -44.82089628 203.80945535 -44.81939499 189.36878709 C-44.81931508 188.59114588 -44.81923517 187.81350468 -44.81915283 187.01229858 C-44.81907107 186.23370095 -44.81898931 185.45510331 -44.81890507 184.6529118 C-44.81809266 172.04272499 -44.83722118 159.43265776 -44.86542957 146.82250551 C-44.89420632 133.85528867 -44.90796719 120.88813006 -44.90624201 107.9208805 C-44.90557971 100.64850956 -44.91100153 93.37626395 -44.93259811 86.10392189 C-44.95279049 79.26088232 -44.95208737 72.41811081 -44.93756485 65.57505798 C-44.93547874 63.06975607 -44.94016571 60.56443751 -44.95228577 58.05916405 C-45.03751528 39.21463982 -44.34057484 24.7035327 -30.65557861 10.39242554 C-21.7863997 2.27418397 -11.70286116 -0.0375881 0 0 Z M-23.44854736 28.26742554 C-28.78121765 36.98518218 -28.59905863 46.60542688 -28.58226013 56.54560852 C-28.58452569 57.54262946 -28.58679124 58.5396504 -28.58912545 59.5668841 C-28.59542504 62.8875681 -28.59463871 66.20821086 -28.59381104 69.52890015 C-28.59680499 71.91791333 -28.60020807 74.30692604 -28.60398865 76.69593811 C-28.61189252 82.49936368 -28.61504217 88.30277686 -28.61560103 94.10620754 C-28.6160774 98.82558821 -28.61813818 103.54496555 -28.62130165 108.26434517 C-28.63009934 121.66287382 -28.63472224 135.0613945 -28.63397118 148.45992606 C-28.63393122 149.18103712 -28.63389126 149.90214818 -28.6338501 150.64511108 C-28.63380922 151.36710847 -28.63376834 152.08910586 -28.63372622 152.83298195 C-28.63331967 164.53654736 -28.64289366 176.2400806 -28.65698846 187.94363671 C-28.6713674 199.97860428 -28.67825786 212.01355617 -28.67739469 224.04853255 C-28.67706331 230.79817125 -28.67978444 237.54777621 -28.69057274 244.29740715 C-28.70026231 250.64463998 -28.70032694 256.99180159 -28.69305611 263.33903694 C-28.69201144 265.66499053 -28.69436613 267.99094858 -28.70041656 270.31689453 C-28.70815587 273.49876596 -28.70347879 276.68039259 -28.69578552 279.86225891 C-28.70092909 280.7763828 -28.70607265 281.6905067 -28.71137208 282.63233131 C-28.65000632 294.16555877 -26.53766843 302.65563313 -18.62823486 311.24398804 C-11.04973745 318.45429934 -2.62611825 320.88045678 7.6461792 320.76863098 C8.61138615 320.77416538 9.57659309 320.77969977 10.57104874 320.78540188 C13.77832696 320.79892422 16.98481558 320.78408477 20.19207764 320.76913452 C22.5024244 320.77292075 24.8127689 320.77842328 27.12310791 320.7855072 C33.37928303 320.79943931 39.63518243 320.78830753 45.89134216 320.77179599 C52.44764406 320.75791798 59.0039304 320.76440871 65.5602417 320.76792908 C76.56907411 320.77135837 87.57780334 320.75726234 98.58660889 320.73397827 C109.89654593 320.71006023 121.20633859 320.7029752 132.51629639 320.71347046 C146.169936 320.726118 159.82347429 320.72357055 173.47711182 320.70781136 C178.68261273 320.70206244 183.8880653 320.70212565 189.09356689 320.70687675 C195.22664655 320.71165945 201.35952715 320.7014911 207.49256897 320.6799221 C209.73950021 320.6743717 211.98645065 320.67387283 214.23338318 320.67887497 C217.30804954 320.68485993 220.38211381 320.67226092 223.45672607 320.65510559 C224.33904026 320.66111564 225.22135445 320.66712568 226.13040543 320.67331785 C237.17557475 320.56178662 245.35921354 317.24904426 253.27410889 309.60336304 C259.92687452 302.4438757 260.99733603 295.00791941 260.93913269 285.5712738 C260.94451823 284.51723199 260.94990377 283.46319017 260.9554525 282.3772077 C260.96972042 278.85750215 260.96263104 275.3381733 260.95550537 271.81845093 C260.96120951 269.29003091 260.96817394 266.76161346 260.9763031 264.23320007 C260.99238207 258.08569293 260.99433623 251.9383241 260.9890902 245.79080231 C260.98504287 240.79248985 260.98649872 235.79420755 260.99183846 230.79589653 C260.99258688 230.08353576 260.9933353 229.37117498 260.9941064 228.63722752 C260.99563793 227.18990536 260.99717628 225.74258322 260.99872137 224.29526108 C261.01243752 210.73400387 261.00701486 197.17280441 260.99553616 183.61154854 C260.98560381 171.21528205 260.998546 158.81916483 261.02247035 146.42292137 C261.04687443 133.6817193 261.05646606 120.94058671 261.04981762 108.19936174 C261.04632842 101.05120435 261.04853771 93.90316173 261.06606865 86.75502205 C261.08234956 80.03344718 261.07758872 73.31220266 261.0587635 66.59062004 C261.05507603 64.12556895 261.05819062 61.66049675 261.06864929 59.19546509 C261.08184925 55.82683515 261.0703192 52.45915041 261.05265808 49.09056091 C261.06226309 48.11836878 261.07186809 47.14617665 261.08176416 46.14452416 C260.98417839 37.07925991 257.98378914 29.76005339 251.67865419 23.19856542 C245.0528201 17.18342668 237.82260631 15.52688871 229.11505127 15.63923645 C228.11309235 15.63214206 227.11113343 15.62504768 226.07881212 15.61773831 C222.74702741 15.60024375 219.41642251 15.61822029 216.08465576 15.63632202 C213.68563814 15.63117998 211.28662429 15.62389655 208.88761902 15.61463928 C203.0634837 15.59807071 197.23972106 15.60473481 191.41559684 15.62272751 C186.67953175 15.63679018 181.94355772 15.64063847 177.20747375 15.63728523 C176.53175238 15.63680779 175.856031 15.63633035 175.15983322 15.63583844 C173.78684085 15.63481204 172.41384851 15.63375668 171.04085618 15.63267267 C158.91753083 15.62411763 146.79436747 15.64074157 134.67108154 15.67050171 C122.92459306 15.69933624 111.1783379 15.70642114 99.43182373 15.69100952 C86.62074934 15.67422405 73.80978556 15.67023701 60.99870825 15.68771988 C59.63094935 15.68956414 58.26319044 15.69139887 56.89543152 15.69322395 C56.2225815 15.69413604 55.54973148 15.69504813 54.85649207 15.69598786 C50.1296762 15.7015787 45.40291459 15.69829968 40.67610168 15.691679 C34.30658685 15.68400332 27.93740705 15.69618486 21.5679493 15.72352791 C19.23394324 15.73039925 16.89990583 15.73052319 14.5659008 15.72331238 C11.37284787 15.71458619 8.18082141 15.73062835 4.987854 15.75276184 C4.07052128 15.74452107 3.15318856 15.73628031 2.20805788 15.72778982 C-8.51561943 15.8644079 -16.89586349 19.73228996 -23.44854736 28.26742554 Z " fill="inherit" transform="translate(140.44854736328125,77.73257446289063)"></path>
<path xmlns="http://www.w3.org/2000/svg" d="M0 0 C14.85 0 29.7 0 45 0 C45 5.28 45 10.56 45 16 C30.15 16 15.3 16 0 16 C0 10.72 0 5.44 0 0 Z " fill="inherit" transform="translate(251,107)"></path>
<path xmlns="http://www.w3.org/2000/svg" d="M0 0 C3.3 0 6.6 0 10 0 C10 12.87 10 25.74 10 39 C6.7 39 3.4 39 0 39 C0 26.13 0 13.26 0 0 Z " fill="inherit" transform="translate(305,107)"></path>
<path xmlns="http://www.w3.org/2000/svg" d="M0 0 C1.27423828 -0.00193359 1.27423828 -0.00193359 2.57421875 -0.00390625 C3.91419922 0.00189453 3.91419922 0.00189453 5.28125 0.0078125 C6.17457031 0.00394531 7.06789063 0.00007813 7.98828125 -0.00390625 C8.83777344 -0.00261719 9.68726563 -0.00132813 10.5625 0 C11.34689453 0.00112793 12.13128906 0.00225586 12.93945312 0.00341797 C14.78125 0.1328125 14.78125 0.1328125 15.78125 1.1328125 C15.88057153 2.82839976 15.91205007 4.52806997 15.9140625 6.2265625 C15.91599609 7.77150391 15.91599609 7.77150391 15.91796875 9.34765625 C15.91410156 10.43175781 15.91023438 11.51585937 15.90625 12.6328125 C15.91205078 14.25896484 15.91205078 14.25896484 15.91796875 15.91796875 C15.91667969 16.94792969 15.91539062 17.97789062 15.9140625 19.0390625 C15.91293457 19.99103516 15.91180664 20.94300781 15.91064453 21.92382812 C15.78125 24.1328125 15.78125 24.1328125 14.78125 25.1328125 C13.37776265 25.23141381 11.96944523 25.26360187 10.5625 25.265625 C9.28826172 25.26755859 9.28826172 25.26755859 7.98828125 25.26953125 C6.64830078 25.26373047 6.64830078 25.26373047 5.28125 25.2578125 C4.38792969 25.26167969 3.49460937 25.26554687 2.57421875 25.26953125 C1.72472656 25.26824219 0.87523437 25.26695312 0 25.265625 C-0.78439453 25.26449707 -1.56878906 25.26336914 -2.37695312 25.26220703 C-4.21875 25.1328125 -4.21875 25.1328125 -5.21875 24.1328125 C-5.31807153 22.43722524 -5.34955007 20.73755503 -5.3515625 19.0390625 C-5.35349609 17.49412109 -5.35349609 17.49412109 -5.35546875 15.91796875 C-5.35160156 14.83386719 -5.34773438 13.74976563 -5.34375 12.6328125 C-5.34761719 11.54871094 -5.35148437 10.46460938 -5.35546875 9.34765625 C-5.35417969 8.31769531 -5.35289062 7.28773437 -5.3515625 6.2265625 C-5.35043457 5.27458984 -5.34930664 4.32261719 -5.34814453 3.34179688 C-5.12085763 -0.53837651 -3.44405201 0.00495242 0 0 Z " fill="inherit" transform="translate(332.21875,119.8671875)"></path>
<path xmlns="http://www.w3.org/2000/svg" d="M0 0 C1.48669189 -0.00956978 1.48669189 -0.00956978 3.00341797 -0.01933289 C4.60660889 -0.02100212 4.60660889 -0.02100212 6.2421875 -0.02270508 C7.34062988 -0.02603348 8.43907227 -0.02936188 9.57080078 -0.03279114 C11.89420147 -0.03785573 14.21760943 -0.04019961 16.54101562 -0.04003906 C20.1029857 -0.0422276 23.66464716 -0.06039411 27.2265625 -0.0793457 C29.48176977 -0.08227925 31.73697852 -0.0842643 33.9921875 -0.08520508 C35.06098145 -0.09239059 36.12977539 -0.09957611 37.23095703 -0.10697937 C38.22208496 -0.10390274 39.21321289 -0.10082611 40.234375 -0.09765625 C41.10690918 -0.09908127 41.97944336 -0.10050629 42.87841797 -0.10197449 C45.1171875 0.14526367 45.1171875 0.14526367 48.1171875 2.14526367 C48.4453125 5.14916992 48.4453125 5.14916992 48.3671875 8.70776367 C48.35171875 9.88467773 48.33625 11.0615918 48.3203125 12.27416992 C48.1171875 15.14526367 48.1171875 15.14526367 47.1171875 16.14526367 C45.39853341 16.23885557 43.67603006 16.26270978 41.95483398 16.25878906 C40.85376816 16.25871353 39.75270233 16.258638 38.61827087 16.25856018 C37.4203743 16.2533989 36.22247772 16.24823761 34.98828125 16.24291992 C33.76891373 16.24150497 32.5495462 16.24009003 31.29322815 16.2386322 C27.3803568 16.23301334 23.46754169 16.22045763 19.5546875 16.20776367 C16.90950603 16.2027511 14.26432367 16.19818778 11.61914062 16.1940918 C5.11846776 16.18303778 -1.38216282 16.16576051 -7.8828125 16.14526367 C-7.8828125 11.19526367 -7.8828125 6.24526367 -7.8828125 1.14526367 C-4.95445744 0.16914532 -3.0504987 0.01332657 0 0 Z " fill="inherit" transform="translate(172.8828125,129.854736328125)"></path>
<path xmlns="http://www.w3.org/2000/svg" d="M0 0 C1.00050906 -0.00694553 2.00101812 -0.01389106 3.03184563 -0.02104706 C6.38832346 -0.03936046 9.74409797 -0.02904033 13.1006012 -0.01878357 C15.5053714 -0.02583982 17.91013716 -0.03458359 20.31489563 -0.04489136 C26.17105469 -0.06508653 32.02703467 -0.06640447 37.88320618 -0.05826581 C42.64325703 -0.05196523 47.40325122 -0.05310336 52.16330147 -0.05953789 C52.84085518 -0.06043954 53.5184089 -0.0613412 54.21649455 -0.06227018 C55.59295751 -0.06412138 56.96942045 -0.06598395 58.34588338 -0.06785773 C71.25323505 -0.08443633 84.16047742 -0.07571666 97.06782252 -0.05887216 C108.87465759 -0.0441764 120.68123815 -0.05880159 132.48804044 -0.08764232 C144.61328855 -0.11704019 156.73841921 -0.12800741 168.8637014 -0.11846012 C170.23539831 -0.11743757 171.60709524 -0.11644296 172.97879219 -0.11547661 C173.65367999 -0.11500022 174.3285678 -0.11452383 175.02390675 -0.114033 C179.77711634 -0.1118693 184.53021467 -0.12167057 189.28339958 -0.13624763 C195.68319812 -0.15560081 202.08263883 -0.14868441 208.48242188 -0.12404823 C210.83262456 -0.11903031 213.18286314 -0.12255535 215.53303719 -0.13519669 C218.73888144 -0.15107775 221.94315619 -0.1362214 225.14892578 -0.11352539 C226.08132047 -0.12536112 227.01371515 -0.13719685 227.97436422 -0.14939123 C232.13846066 -0.08940413 235.27127392 0.13486365 238.71591187 2.6142416 C241.71098013 6.20086773 241.88575082 7.91616484 241.87966919 12.54960632 C241.88691244 13.24596565 241.89415568 13.94232498 241.90161842 14.65978611 C241.91849385 16.98744011 241.89257916 19.31261004 241.86671448 21.64015198 C241.86993411 23.31088428 241.87575191 24.98161331 241.88397217 26.65232849 C241.89850685 31.18547846 241.8755674 35.71774166 241.84511304 40.2507844 C241.81875856 44.99261367 241.82404408 49.73441552 241.82519531 54.4763031 C241.82238632 62.43732036 241.79634517 70.3979944 241.75538635 78.35890198 C241.70817813 87.56862204 241.69239318 96.7779665 241.69459301 105.98779881 C241.69642266 114.84318012 241.68111945 123.6984389 241.65621758 132.55378342 C241.64561456 136.32486298 241.64012721 140.0958992 241.63853645 143.86699295 C241.6355275 148.304323 241.61724951 152.74133652 241.58703804 157.17856216 C241.57826066 158.80919456 241.57458743 160.43986339 241.57632065 162.07051849 C241.57778854 164.29191383 241.56087084 166.51241709 241.53909302 168.73368835 C241.53406549 169.97806734 241.52903795 171.22244633 241.52385807 172.50453377 C241.13795471 175.5146637 241.13795471 175.5146637 239.88040489 177.1792016 C237.7101552 178.8425411 236.58739601 178.89043982 233.87284851 178.89218712 C232.99787657 178.90001036 232.12290462 178.9078336 231.22141838 178.91589391 C229.7784901 178.90585566 229.7784901 178.90585566 228.30641174 178.89561462 C227.28507708 178.9002946 226.26374241 178.90497457 225.21145821 178.90979636 C221.77276431 178.92180804 218.33446441 178.9122649 214.89576721 178.90284729 C212.43716702 178.90691024 209.97856864 178.91225056 207.51997375 178.91877747 C201.52551547 178.93106418 195.53121309 178.92922823 189.53676081 178.92053954 C184.6660434 178.91377124 179.79535759 178.91284257 174.92463684 178.91611099 C174.23206917 178.91657069 173.5395015 178.91703039 172.82594693 178.91750402 C171.41911871 178.91846317 170.01229051 178.91943581 168.60546231 178.92042179 C155.40588936 178.92898154 142.20637886 178.91913241 129.00681615 178.90302069 C117.67484668 178.88961697 106.34296939 178.8919449 95.01100159 178.90577698 C81.85946827 178.92182249 68.70798972 178.92815751 55.55644798 178.91894019 C54.15472286 178.91798451 52.75299772 178.9170414 51.35127258 178.91611099 C50.31669188 178.91541675 50.31669188 178.91541675 49.26121056 178.91470849 C44.39493697 178.9121155 39.52869804 178.91649622 34.66242981 178.92354965 C28.11582097 178.93282985 21.56935973 178.92624635 15.02275848 178.90886688 C12.61485841 178.90488772 10.20694371 178.90606034 7.79904938 178.91265488 C4.52233117 178.92080394 1.2461794 178.91062907 -2.03050232 178.89561462 C-3.4734306 178.90565287 -3.4734306 178.90565287 -4.94550896 178.91589391 C-5.8204809 178.90807067 -6.69545284 178.90024743 -7.59693909 178.89218712 C-8.35361437 178.89170006 -9.11028965 178.891213 -9.88989449 178.89071119 C-12.43108483 178.40615988 -13.31738677 177.56092639 -14.86204529 175.5146637 C-15.24515533 172.48612309 -15.24515533 172.48612309 -15.25645447 168.68899536 C-15.26254557 167.9909669 -15.26863667 167.29293843 -15.27491236 166.57375759 C-15.29159373 164.22910698 -15.28675944 161.8849964 -15.28196716 159.54029846 C-15.28930453 157.86163262 -15.29788979 156.18297184 -15.30763245 154.50431824 C-15.32989203 149.94027878 -15.33277693 145.37641963 -15.33088493 140.81233335 C-15.33076544 137.00502058 -15.33932093 133.19774631 -15.34766245 129.39044422 C-15.36691245 120.40993344 -15.3697745 111.42951563 -15.36302185 102.44898987 C-15.35637914 93.17791175 -15.37925097 83.90723131 -15.41633558 74.63623387 C-15.44700101 66.68201319 -15.45839607 58.72792064 -15.45449877 50.773642 C-15.45242803 46.02043657 -15.45796039 41.26754053 -15.48239136 36.51439095 C-15.50460403 32.04499923 -15.50282677 27.57625541 -15.48246384 23.10686111 C-15.47904404 21.46533776 -15.4841845 19.82377125 -15.49844742 18.18230629 C-15.51656266 15.94321454 -15.50395259 13.70633901 -15.48350525 11.46731567 C-15.48421776 10.2138865 -15.48493027 8.96045732 -15.48566437 7.66904545 C-14.86204529 4.5146637 -14.86204529 4.5146637 -12.93958187 2.11228943 C-8.57841428 -0.15170107 -4.84907696 -0.04275522 0 0 Z M2.13795471 16.5146637 C2.13795471 20.4746637 2.13795471 24.4346637 2.13795471 28.5146637 C30.93550383 28.53798895 59.73305153 28.55564103 88.53060818 28.56647587 C101.90078504 28.57163962 115.27095553 28.57865356 128.64112854 28.59010315 C140.28994677 28.60004757 151.93876077 28.60651654 163.58758312 28.60875219 C169.75970266 28.61005971 175.93181005 28.61314815 182.1039257 28.62039375 C187.90599769 28.62715016 193.70805247 28.62928144 199.51012802 28.62777138 C201.64634736 28.62804788 203.78256724 28.63005524 205.91878319 28.63386917 C208.82177222 28.63880049 211.72469518 28.63766407 214.62768555 28.63491821 C215.48467228 28.63783105 216.34165901 28.6407439 217.22461504 28.64374501 C220.98661319 28.99917745 220.98661319 28.99917745 224.13795471 27.5146637 C223.80795471 23.8846637 223.47795471 20.2546637 223.13795471 16.5146637 C150.20795471 16.5146637 77.27795471 16.5146637 2.13795471 16.5146637 Z M2.13795471 43.5146637 C2.13795471 47.1446637 2.13795471 50.7746637 2.13795471 54.5146637 C72.42795471 54.5146637 142.71795471 54.5146637 215.13795471 54.5146637 C215.13795471 59.7946637 215.13795471 65.0746637 215.13795471 70.5146637 C144.84795471 70.5146637 74.55795471 70.5146637 2.13795471 70.5146637 C2.13795471 74.1446637 2.13795471 77.7746637 2.13795471 81.5146637 C75.39795471 81.5146637 148.65795471 81.5146637 224.13795471 81.5146637 C224.13795471 69.3046637 224.13795471 57.0946637 224.13795471 44.5146637 C219.79552754 43.4290569 215.81619157 43.3789658 211.3808136 43.39440918 C210.48718148 43.39355475 209.59354937 43.39270033 208.6728375 43.39182001 C205.67258286 43.39017033 202.6723839 43.39567826 199.6721344 43.40113831 C197.52378847 43.40142031 195.37544244 43.40126218 193.22709656 43.4006958 C187.38866824 43.40040836 181.55026037 43.40629656 175.71183681 43.41326976 C169.61260519 43.41951209 163.51337312 43.42010779 157.41413879 43.42129517 C145.86157894 43.42440588 134.30902852 43.43261579 122.75647283 43.44264466 C109.6054828 43.45381384 96.45449233 43.45931828 83.30349874 43.46434009 C56.24831216 43.4747986 29.19313397 43.49239304 2.13795471 43.5146637 Z M2.13795471 97.5146637 C2.13795471 101.1446637 2.13795471 104.7746637 2.13795471 108.5146637 C46.68795471 108.5146637 91.23795471 108.5146637 137.13795471 108.5146637 C137.13795471 113.4646637 137.13795471 118.4146637 137.13795471 123.5146637 C92.58795471 123.5146637 48.03795471 123.5146637 2.13795471 123.5146637 C2.13795471 127.1446637 2.13795471 130.7746637 2.13795471 134.5146637 C34.14795471 134.5146637 66.15795471 134.5146637 99.13795471 134.5146637 C98.80795471 139.7946637 98.47795471 145.0746637 98.13795471 150.5146637 C66.45795471 150.8446637 34.77795471 151.1746637 2.13795471 151.5146637 C2.13795471 155.1446637 2.13795471 158.7746637 2.13795471 162.5146637 C54.27795471 162.5146637 106.41795471 162.5146637 160.13795471 162.5146637 C161.39228929 158.75165996 161.24490893 155.24255461 161.20045471 151.3271637 C161.19368713 150.20277893 161.19368713 150.20277893 161.18678284 149.05567932 C161.17501825 147.20863987 161.15708337 145.36164156 161.13795471 143.5146637 C165.59295471 143.0196637 165.59295471 143.0196637 170.13795471 142.5146637 C170.13795471 149.1146637 170.13795471 155.7146637 170.13795471 162.5146637 C187.95795471 162.5146637 205.77795471 162.5146637 224.13795471 162.5146637 C224.13795471 141.0646637 224.13795471 119.6146637 224.13795471 97.5146637 C150.87795471 97.5146637 77.61795471 97.5146637 2.13795471 97.5146637 Z " fill="inherit" transform="translate(143.86204528808594,157.48533630371094)"></path>
<path xmlns="http://www.w3.org/2000/svg" d="M0 0 C6.93 0 13.86 0 21 0 C21.020625 2.454375 21.04125 4.90875 21.0625 7.4375 C21.071604 8.21150146 21.08070801 8.98550293 21.09008789 9.78295898 C21.09724913 11.52221717 21.05024702 13.26145304 21 15 C20 16 20 16 18.05053711 16.11352539 C17.2178833 16.10828857 16.38522949 16.10305176 15.52734375 16.09765625 C14.62822266 16.09443359 13.72910156 16.09121094 12.80273438 16.08789062 C11.85720703 16.07951172 10.91167969 16.07113281 9.9375 16.0625 C8.98810547 16.05798828 8.03871094 16.05347656 7.06054688 16.04882812 C4.70696935 16.0370011 2.35351523 16.02052025 0 16 C-2.11764706 4.23529412 -2.11764706 4.23529412 0 0 Z " fill="inherit" transform="translate(337,266)"></path>
<path xmlns="http://www.w3.org/2000/svg" d="M0 0 C3.3 0.33 6.6 0.66 10 1 C10 12.55 10 24.1 10 36 C6.7 36 3.4 36 0 36 C0 24.12 0 12.24 0 0 Z " fill="inherit" transform="translate(312,349)"></path>
<path xmlns="http://www.w3.org/2000/svg" d="M0 0 C15.51 0 31.02 0 47 0 C47.04125 4.08375 47.0825 8.1675 47.125 12.375 C47.14320801 13.66196777 47.16141602 14.94893555 47.18017578 16.27490234 C47.1851709 17.28504395 47.19016602 18.29518555 47.1953125 19.3359375 C47.21102295 20.89127197 47.21102295 20.89127197 47.22705078 22.47802734 C47 25 47 25 45 27 C41.7421875 27.1953125 41.7421875 27.1953125 37.875 27.125 C35.95300781 27.09792969 35.95300781 27.09792969 33.9921875 27.0703125 C32.51105469 27.03550781 32.51105469 27.03550781 31 27 C29.8422494 23.52674819 29.93133348 20.63932552 30 17 C28.69011108 17.00785522 28.69011108 17.00785522 27.35375977 17.01586914 C24.12410727 17.03287751 20.89447755 17.04543369 17.66479492 17.05493164 C16.26504772 17.0599708 14.8653058 17.06680216 13.46557617 17.07543945 C11.45754223 17.0875232 9.44947043 17.09269807 7.44140625 17.09765625 C6.23170166 17.10289307 5.02199707 17.10812988 3.77563477 17.11352539 C1 17 1 17 0 16 C0 10.72 0 5.44 0 0 Z " fill="inherit" transform="translate(164,350)"></path>
<path xmlns="http://www.w3.org/2000/svg" d="M0 0 C5.61 0 11.22 0 17 0 C17 11.55 17 23.1 17 35 C11.39 35 5.78 35 0 35 C0 23.45 0 11.9 0 0 Z " fill="inherit" transform="translate(256,350)"></path>
<path xmlns="http://www.w3.org/2000/svg" d="M0 0 C5.61 0 11.22 0 17 0 C17 11.55 17 23.1 17 35 C11.39 35 5.78 35 0 35 C0 23.45 0 11.9 0 0 Z " fill="inherit" transform="translate(285,350)"></path>
<path xmlns="http://www.w3.org/2000/svg" d="M0 0 C5.94 0 11.88 0 18 0 C18 5.61 18 11.22 18 17 C12.06 17 6.12 17 0 17 C0 11.39 0 5.78 0 0 Z " fill="inherit" transform="translate(337,350)"></path>
</g></svg><svg id="name" viewBox="0 0 196.64999389648438 43.79199981689453" width="196" height="43.64725263418773" x="69" y="4.676373682906135" data-v-8d8ae3dd="" style="fill: rgb(0, 0, 0);"><rect x="0" y="0" width="100%" height="100%" fill="none" data-v-8d8ae3dd=""></rect><g data-v-8d8ae3dd=""><path xmlns="http://www.w3.org/2000/svg" d="M6.16 33.12L0 33.12L11.78 0.92L18.40 0.92L30.18 33.12L23.92 33.12L21.34 25.67L8.79 25.67L6.16 33.12ZM15.04 7.68L10.40 21.07L19.73 21.07L15.04 7.68ZM43.84 26.31L43.84 26.31Q42.18 26.31 40.76 25.94L40.76 25.94L39.05 27.65Q39.84 28.06 41.17 28.34Q42.50 28.61 45.49 28.89L45.49 28.89Q50.05 29.30 52.12 31.05Q54.19 32.80 54.19 35.88L54.19 35.88Q54.19 37.90 53.08 39.72Q51.98 41.54 49.68 42.66Q47.38 43.79 43.79 43.79L43.79 43.79Q38.92 43.79 35.93 41.97Q32.94 40.16 32.94 36.52L32.94 36.52Q32.94 33.44 35.93 31.19L35.93 31.19Q35.01 30.77 34.34 30.31Q33.67 29.85 33.17 29.35L33.17 29.35L33.17 28.29L37.17 24.06Q34.50 21.71 34.50 18.03L34.50 18.03Q34.50 15.73 35.63 13.85Q36.75 11.96 38.82 10.86Q40.89 9.75 43.84 9.75L43.84 9.75Q45.77 9.75 47.43 10.30L47.43 10.30L56.07 10.30L56.07 13.89L52.16 14.17Q53.08 15.92 53.08 18.03L53.08 18.03Q53.08 20.33 51.98 22.22Q50.88 24.10 48.78 25.21Q46.69 26.31 43.84 26.31ZM43.84 21.80L43.84 21.80Q45.63 21.80 46.80 20.84Q47.98 19.87 47.98 18.08L47.98 18.08Q47.98 16.28 46.80 15.32Q45.63 14.35 43.84 14.35L43.84 14.35Q41.95 14.35 40.80 15.32Q39.65 16.28 39.65 18.08L39.65 18.08Q39.65 19.87 40.80 20.84Q41.95 21.80 43.84 21.80ZM38.32 35.93L38.32 35.93Q38.32 37.63 39.91 38.48Q41.49 39.33 43.79 39.33L43.79 39.33Q46 39.33 47.38 38.43Q48.76 37.54 48.76 36.02L48.76 36.02Q48.76 34.78 47.86 33.95Q46.97 33.12 44.30 32.94L44.30 32.94Q42.41 32.80 40.80 32.52L40.80 32.52Q39.47 33.26 38.89 34.13Q38.32 35.01 38.32 35.93ZM66.24 33.12L60.35 33.12L60.35 10.30L65.60 10.30L66.15 14.58Q67.39 12.37 69.53 11.06Q71.67 9.75 74.57 9.75L74.57 9.75L74.57 15.96L72.91 15.96Q70.98 15.96 69.46 16.56Q67.94 17.16 67.09 18.63Q66.24 20.10 66.24 22.72L66.24 22.72L66.24 33.12ZM89.24 33.67L89.24 33.67Q85.79 33.67 83.12 32.20Q80.45 30.73 78.94 28.06Q77.42 25.39 77.42 21.90L77.42 21.90Q77.42 18.35 78.91 15.59Q80.41 12.83 83.05 11.29Q85.70 9.75 89.29 9.75L89.29 9.75Q92.64 9.75 95.22 11.22Q97.80 12.70 99.25 15.25Q100.69 17.80 100.69 20.93L100.69 20.93Q100.69 21.44 100.67 21.99Q100.65 22.54 100.60 23.14L100.60 23.14L83.26 23.14Q83.44 25.81 85.12 27.32Q86.80 28.84 89.19 28.84L89.19 28.84Q90.99 28.84 92.21 28.04Q93.43 27.23 94.02 25.94L94.02 25.94L100.00 25.94Q99.36 28.11 97.87 29.88Q96.37 31.65 94.19 32.66Q92 33.67 89.24 33.67ZM89.29 14.54L89.29 14.54Q87.12 14.54 85.47 15.75Q83.81 16.97 83.35 19.46L83.35 19.46L94.71 19.46Q94.58 17.20 93.06 15.87Q91.54 14.54 89.29 14.54ZM113.53 33.67L113.53 33.67Q110.58 33.67 108.70 32.73Q106.81 31.79 105.89 30.22Q104.97 28.66 104.97 26.77L104.97 26.77Q104.97 23.60 107.46 21.62Q109.94 19.64 114.91 19.64L114.91 19.64L120.70 19.64L120.70 19.09Q120.70 16.74 119.37 15.64Q118.04 14.54 116.06 14.54L116.06 14.54Q114.26 14.54 112.93 15.39Q111.60 16.24 111.27 17.89L111.27 17.89L105.52 17.89Q105.75 15.41 107.20 13.57Q108.65 11.73 110.95 10.74Q113.25 9.75 116.10 9.75L116.10 9.75Q120.98 9.75 123.79 12.19Q126.59 14.63 126.59 19.09L126.59 19.09L126.59 33.12L121.58 33.12L121.03 29.44Q120.01 31.28 118.20 32.48Q116.38 33.67 113.53 33.67ZM114.86 29.07L114.86 29.07Q117.39 29.07 118.80 27.42Q120.20 25.76 120.57 23.32L120.57 23.32L115.55 23.32Q113.21 23.32 112.19 24.17Q111.18 25.02 111.18 26.27L111.18 26.27Q111.18 27.60 112.19 28.34Q113.21 29.07 114.86 29.07ZM145.73 33.67L145.73 33.67Q143.15 33.67 141.22 32.71Q139.29 31.74 138.09 29.99L138.09 29.99L137.45 33.12L132.20 33.12L132.20 0L138.09 0L138.09 13.57Q139.20 12.05 141.01 10.90Q142.83 9.75 145.73 9.75L145.73 9.75Q148.95 9.75 151.48 11.32Q154.01 12.88 155.48 15.59Q156.95 18.31 156.95 21.76L156.95 21.76Q156.95 25.21 155.48 27.90Q154.01 30.59 151.48 32.13Q148.95 33.67 145.73 33.67ZM144.49 28.52L144.49 28.52Q147.29 28.52 149.13 26.63Q150.97 24.75 150.97 21.76L150.97 21.76Q150.97 18.77 149.13 16.84Q147.29 14.90 144.49 14.90L144.49 14.90Q141.63 14.90 139.82 16.81Q138 18.72 138 21.71L138 21.71Q138 24.70 139.82 26.61Q141.63 28.52 144.49 28.52ZM168.08 33.12L162.20 33.12L162.20 0L168.08 0L168.08 33.12ZM185.20 33.67L185.20 33.67Q181.75 33.67 179.08 32.20Q176.41 30.73 174.89 28.06Q173.37 25.39 173.37 21.90L173.37 21.90Q173.37 18.35 174.87 15.59Q176.36 12.83 179.01 11.29Q181.65 9.75 185.24 9.75L185.24 9.75Q188.60 9.75 191.18 11.22Q193.75 12.70 195.20 15.25Q196.65 17.80 196.65 20.93L196.65 20.93Q196.65 21.44 196.63 21.99Q196.60 22.54 196.56 23.14L196.56 23.14L179.22 23.14Q179.40 25.81 181.08 27.32Q182.76 28.84 185.15 28.84L185.15 28.84Q186.94 28.84 188.16 28.04Q189.38 27.23 189.98 25.94L189.98 25.94L195.96 25.94Q195.32 28.11 193.82 29.88Q192.33 31.65 190.14 32.66Q187.96 33.67 185.20 33.67ZM185.24 14.54L185.24 14.54Q183.08 14.54 181.42 15.75Q179.77 16.97 179.31 19.46L179.31 19.46L190.67 19.46Q190.53 17.20 189.01 15.87Q187.50 14.54 185.24 14.54Z"></path></g></svg><!----></svg>